<svg width="80" height="80" viewBox="0 0 80 80" fill="none" xmlns="http://www.w3.org/2000/svg">
<circle cx="40" cy="40" r="39" fill="black" stroke="#FF00FF" stroke-width="2"/>
<path d="M29.572 51.252C28.66 51.252 28.204 50.772 28.204 49.812V26.808C28.204 25.848 28.66 25.368 29.572 25.368C29.956 25.368 30.256 25.452 30.472 25.62C30.712 25.764 30.928 26.016 31.12 26.376L40.444 43.944L49.732 26.376C49.924 26.016 50.128 25.764 50.344 25.62C50.56 25.452 50.872 25.368 51.28 25.368C52.168 25.368 52.612 25.848 52.612 26.808V49.812C52.612 50.772 52.156 51.252 51.244 51.252C50.332 51.252 49.876 50.772 49.876 49.812V31.164L41.74 46.464C41.572 46.776 41.392 47.004 41.2 47.148C41.032 47.268 40.78 47.328 40.444 47.328C40.108 47.328 39.844 47.256 39.652 47.112C39.46 46.968 39.292 46.752 39.148 46.464L30.904 31.2V49.812C30.904 50.772 30.46 51.252 29.572 51.252Z" fill="#FF00FF"/>
<path d="M30.472 25.62L29.2441 27.1987L29.3395 27.2729L29.443 27.335L30.472 25.62ZM31.12 26.376L32.8866 25.4384L32.8847 25.4348L31.12 26.376ZM40.444 43.944L38.6774 44.8816L40.4474 48.2166L42.2121 44.8788L40.444 43.944ZM49.732 26.376L47.9673 25.4348L47.9639 25.4412L49.732 26.376ZM50.344 25.62L51.4534 27.2841L51.5142 27.2436L51.5719 27.1987L50.344 25.62ZM49.876 31.164H51.876L48.1101 30.225L49.876 31.164ZM41.74 46.464L43.501 47.4122L43.5059 47.403L41.74 46.464ZM41.2 47.148L42.3625 48.7755L42.3814 48.762L42.4 48.748L41.2 47.148ZM39.652 47.112L38.452 48.712L38.452 48.712L39.652 47.112ZM39.148 46.464L40.9369 45.5696L40.9227 45.5413L40.9077 45.5136L39.148 46.464ZM30.904 31.2L32.6637 30.2496L28.904 31.2H30.904ZM29.572 49.252C29.4512 49.252 29.7213 49.2253 29.996 49.5145C30.2525 49.7845 30.204 50.0086 30.204 49.812H26.204C26.204 50.5754 26.3835 51.5195 27.096 52.2695C27.8267 53.0387 28.7808 53.252 29.572 53.252V49.252ZM30.204 49.812V26.808H26.204V49.812H30.204ZM30.204 26.808C30.204 26.6114 30.2525 26.8355 29.996 27.1055C29.7213 27.3947 29.4512 27.368 29.572 27.368V23.368C28.7808 23.368 27.8267 23.5813 27.096 24.3505C26.3835 25.1005 26.204 26.0446 26.204 26.808H30.204ZM29.572 27.368C29.6869 27.368 29.4964 27.3949 29.2441 27.1987L31.6999 24.0413C31.0156 23.5091 30.2251 23.368 29.572 23.368V27.368ZM29.443 27.335C29.3481 27.278 29.3021 27.2263 29.2955 27.2186C29.2898 27.212 29.313 27.2378 29.3553 27.3172L32.8847 25.4348C32.5955 24.8925 32.1627 24.302 31.501 23.905L29.443 27.335ZM29.3534 27.3136L38.6774 44.8816L42.2106 43.0064L32.8866 25.4384L29.3534 27.3136ZM42.2121 44.8788L51.5001 27.3108L47.9639 25.4412L38.6759 43.0092L42.2121 44.8788ZM51.4967 27.3172C51.5213 27.271 51.5418 27.2369 51.5574 27.2128C51.5731 27.1885 51.5821 27.1771 51.5835 27.1754C51.5849 27.1737 51.5763 27.1845 51.5563 27.2034C51.5362 27.2224 51.5023 27.2515 51.4534 27.2841L49.2346 23.9559C48.6303 24.3588 48.2344 24.9339 47.9673 25.4348L51.4967 27.3172ZM51.5719 27.1987C51.4353 27.3049 51.3153 27.3473 51.2599 27.3622C51.2088 27.376 51.2079 27.368 51.28 27.368V23.368C50.6362 23.368 49.8186 23.4949 49.1161 24.0413L51.5719 27.1987ZM51.28 27.368C51.3272 27.368 51.283 27.375 51.1847 27.3396C51.0752 27.3001 50.9351 27.2205 50.8108 27.0861C50.5605 26.8155 50.612 26.5993 50.612 26.808H54.612C54.612 26.0567 54.4415 25.1205 53.7472 24.3699C53.0257 23.5899 52.074 23.368 51.28 23.368V27.368ZM50.612 26.808V49.812H54.612V26.808H50.612ZM50.612 49.812C50.612 50.0086 50.5635 49.7845 50.82 49.5145C51.0947 49.2253 51.3648 49.252 51.244 49.252V53.252C52.0352 53.252 52.9893 53.0387 53.72 52.2695C54.4325 51.5195 54.612 50.5754 54.612 49.812H50.612ZM51.244 49.252C51.1232 49.252 51.3933 49.2253 51.668 49.5145C51.9245 49.7845 51.876 50.0086 51.876 49.812H47.876C47.876 50.5754 48.0555 51.5195 48.768 52.2695C49.4987 53.0387 50.4528 53.252 51.244 53.252V49.252ZM51.876 49.812V31.164H47.876V49.812H51.876ZM48.1101 30.225L39.9741 45.525L43.5059 47.403L51.6419 32.103L48.1101 30.225ZM39.9791 45.5158C39.9594 45.5523 39.943 45.5796 39.9306 45.5988C39.9182 45.6182 39.9108 45.6278 39.9092 45.6297C39.9077 45.6317 39.9135 45.6241 39.9275 45.61C39.9417 45.5959 39.9655 45.5739 40 45.548L42.4 48.748C42.9076 48.3673 43.2555 47.8681 43.5009 47.4122L39.9791 45.5158ZM40.0375 45.5205C40.21 45.3974 40.358 45.3526 40.4218 45.3374C40.4846 45.3224 40.4994 45.328 40.444 45.328V49.328C40.9577 49.328 41.7021 49.2471 42.3625 48.7755L40.0375 45.5205ZM40.444 45.328C40.3718 45.328 40.5835 45.3106 40.852 45.512L38.452 48.712C39.1045 49.2014 39.8442 49.328 40.444 49.328V45.328ZM40.852 45.512C40.9165 45.5604 40.9505 45.601 40.9607 45.6141C40.9702 45.6264 40.96 45.6158 40.9369 45.5696L37.3591 47.3584C37.5967 47.8336 37.9417 48.3292 38.452 48.712L40.852 45.512ZM40.9077 45.5136L32.6637 30.2496L29.1443 32.1504L37.3883 47.4144L40.9077 45.5136ZM28.904 31.2V49.812H32.904V31.2H28.904ZM28.904 49.812C28.904 50.0207 28.8525 49.8045 29.1028 49.5339C29.2271 49.3995 29.3672 49.3199 29.4767 49.2804C29.575 49.245 29.6192 49.252 29.572 49.252V53.252C30.366 53.252 31.3177 53.0301 32.0392 52.2501C32.7335 51.4995 32.904 50.5633 32.904 49.812H28.904Z" fill="#FF00FF"/>
</svg>
